# xmcd
#
# Track frame offsets: 
#        150
#        32124
#        47480
#        69347
#        90051
#        120789
#        137373
#        157079
#
# Disc length: 2396 seconds
#
# Revision: 0
# Processed by: cddbd v1.4PL0 Copyright (c) Steve Scherf et al.
# Submitted via: ExactAudioCopy v0.95a3
#
DISCID=52095a08
DTITLE=Hooker and Steve - Earl Hooker
DYEAR=1969
DGENRE=Blues
TTITLE0=The Moon Is Rising
TTITLE1=Earl's Blues
TTITLE2=Conversion Blues
TTITLE3=Guitar Rag
TTITLE4=Hooker 'n' Steve
TTITLE5=I'm Your Main Man
TTITLE6=New Riviera
TTITLE7=Strung-Out Woman Blues
EXTD=
EXTT0=
EXTT1=
EXTT2=
EXTT3=
EXTT4=
EXTT5=
EXTT6=
EXTT7=
PLAYORDER=
